<svg width="99" height="28" viewBox="0 0 99 28" fill="none" xmlns="http://www.w3.org/2000/svg">
<rect width="99" height="28" rx="14" fill="black"/>
<path d="M22.752 12.1299C22.752 11.6058 22.613 11.2321 22.335 11.0088C22.0615 10.7855 21.6764 10.6738 21.1797 10.6738H19.2178V13.6406H21.1797C21.6764 13.6406 22.0615 13.5199 22.335 13.2783C22.613 13.0368 22.752 12.654 22.752 12.1299ZM24.8369 12.1162C24.8369 13.3057 24.5361 14.1465 23.9346 14.6387C23.333 15.1309 22.474 15.377 21.3574 15.377H19.2178V19H17.126V8.92383H21.5146C22.5264 8.92383 23.333 9.18359 23.9346 9.70312C24.5361 10.2227 24.8369 11.027 24.8369 12.1162ZM27.416 8.92383H29.5215V17.1885H34.5117V19H27.416V8.92383ZM39.7295 15.1924H42.2861L41.0283 11.2275L39.7295 15.1924ZM39.8594 8.92383H42.2383L45.8066 19H43.5234L42.874 16.9287H39.1621L38.4648 19H36.2637L39.8594 8.92383ZM52.5557 8.92383H54.9414L51.5713 15.2129V19H49.4658V15.2129L45.9795 8.92383H48.4609L50.5527 13.3125L52.5557 8.92383ZM59.0723 19H56.9805V8.92383H59.0723V19ZM62.0068 8.92383H64.2148L68.2275 15.958V8.92383H70.1895V19H68.084L63.9688 11.8428V19H62.0068V8.92383ZM79.9326 12.0684C79.7731 11.3802 79.3835 10.8994 78.7637 10.626C78.4173 10.4756 78.0322 10.4004 77.6084 10.4004C76.7972 10.4004 76.1296 10.708 75.6055 11.3232C75.0859 11.9339 74.8262 12.8545 74.8262 14.085C74.8262 15.3245 75.1087 16.2018 75.6738 16.7168C76.2389 17.2318 76.8815 17.4893 77.6016 17.4893C78.3079 17.4893 78.8867 17.2865 79.3379 16.8809C79.7891 16.4707 80.0671 15.9352 80.1719 15.2744H77.8408V13.5928H82.0381V19H80.6436L80.4316 17.7422C80.026 18.2207 79.6615 18.5579 79.3379 18.7539C78.7819 19.0957 78.0983 19.2666 77.2871 19.2666C75.9518 19.2666 74.8581 18.804 74.0059 17.8789C73.1172 16.9492 72.6729 15.6777 72.6729 14.0645C72.6729 12.4329 73.1217 11.125 74.0195 10.1406C74.9173 9.15625 76.1045 8.66406 77.5811 8.66406C78.8617 8.66406 79.8893 8.98991 80.6641 9.6416C81.4434 10.2887 81.89 11.0977 82.0039 12.0684H79.9326Z" fill="white"/>
</svg>
